<svg xmlns="http://www.w3.org/2000/svg" viewBox="0 0 306 306">
	<path fill="#487d83" d="M304.764 153.617C304.764 237.776 236.54 306 152.381 306 68.227 306 0 237.776 0 153.617 0 69.46 68.227 1.237 152.381 1.237c84.159 0 152.383 68.223 152.383 152.38" />
	<path fill="#ec1d27" d="M97.197 209.632h121.04V60.496H97.197z" />
	<path fill="#c21c2c" d="M86.527 74.835v149.418h10.576V61.01c-6.091 1.656-10.576 7.21-10.576 13.826" />
	<path fill="#f19b10" d="M86.527 118.684v-16.98c0-6.612 4.485-12.165 10.576-13.816v16.975c-6.091 1.654-10.576 7.206-10.576 13.821M86.527 204.588v-7.164c0-6.615 4.485-12.168 10.576-13.823v7.166c-6.091 1.656-10.576 7.208-10.576 13.821M86.527 190.047v-7.164c0-6.616 4.485-12.168 10.576-13.827v7.17c-6.091 1.651-10.576 7.205-10.576 13.82" />
	<path fill="#7c291c" d="M100.93 224.253h-3.827V61.01l.094-.025v148.648h3.734v14.621" />
	<path fill="#e51c27" d="M100.93 209.632h-3.733V60.984a14.347 14.347 0 0 1 3.67-.488l.064.004v149.132" />
	<path fill="#d3282d" d="M100.904 60.496h-.067l.067.004z" />
	<path fill="#c9223e" d="M100.867 209.632c-11.887.192-14.34 6.42-14.34 14.339 0 7.918 6.418 14.336 14.34 14.336l.064-.004v-28.666l-.064-.005" />
	<path fill="#ee2537" d="M100.867 238.307l.053-.004v.004h117.317v-2.654l-117.41-.005-.043.005c-6.405-.045-9.277-5.27-9.277-11.682 0-6.42 2.877-11.647 9.288-11.683h117.442v-2.656H100.92v.005l-.053-.005" />
	<path fill="#fff" d="M104.561 212.288c-11.297-.23-13.014 3.745-13.014 11.683 0 10.686 4.696 11.742 12.953 11.677h.096l111.922.005v-23.365H104.562" />
	<path fill="#ec1d27" d="M120.133 222.073h-7.472v24.667l7.472-4.137 7.467 4.137v-24.667h-7.467" />
	<path fill="#f8c717" d="M155.115 137.727h7.947V74.152h-7.947z" />
	<path fill="#f8c717" d="M132.601 99.74h52.975v-7.946H132.6z" />
	<path fill="#fbc20b" d="M127.928 164.348l.621-2.048c.163-.527.352-1.039.566-1.541.213-.503.444-.972.696-1.41.253-.437.513-.829.788-1.18.272-.35.55-.633.836-.853.446-.339.861-.576 1.234-.712a3.676 3.676 0 0 1 1.24-.205c.35 0 .636.061.859.18a.593.593 0 0 1 .336.558c0 .196-.072.38-.221.548-.147.172-.379.255-.695.255a.564.564 0 0 1-.393-.148l-.296-.312-.287-.245a1.18 1.18 0 0 0-.436-.066c-.143 0-.276.078-.401.23-.124.152-.24.344-.342.573-.104.23-.2.476-.281.737l-.22.72-2.67 9.082a4.145 4.145 0 0 0-.142.548 1.907 1.907 0 0 1-.204.574c-.097.179-.25.331-.45.451-.202.121-.485.175-.843.164l-.658-.025c-.152-.005-.245-.063-.277-.172-.033-.11-.012-.298.064-.566.079-.268.197-.669.361-1.205l1.019-3.26h-4.901l-1.182 3.556c-.077.23-.137.45-.181.656a1.54 1.54 0 0 1-.212.54c-.097.152-.25.272-.452.363-.201.086-.5.124-.892.113a9.096 9.096 0 0 0-.63-.008c-.138.005-.218-.041-.24-.14-.02-.097.01-.27.09-.516.084-.244.207-.624.368-1.139l2.461-7.572c.119-.348.082-.582-.116-.705-.196-.12-.502-.179-.916-.179-.625 0-1.241.108-1.854.326-.61.22-1.163.492-1.654.822a4.89 4.89 0 0 0-1.189 1.08c-.299.394-.45.758-.45 1.098 0 .196.035.366.106.506a.977.977 0 0 0 .272.346c.108.089.23.153.36.197.13.043.25.065.36.065.163 0 .29-.04.385-.122l.22-.287c.09-.164.188-.29.306-.379a.724.724 0 0 1 .448-.13c.317 0 .546.082.69.246a.73.73 0 0 1 .179.574c.01.317-.133.589-.435.818-.3.23-.702.346-1.205.346-.327 0-.636-.043-.924-.131a2.258 2.258 0 0 1-.772-.408 1.98 1.98 0 0 1-.53-.707 2.346 2.346 0 0 1-.198-.998 3.69 3.69 0 0 1 2.016-3.344c.263-.143.517-.258.761-.346.246-.088.512-.156.796-.212a6.61 6.61 0 0 1 .982-.106c.372-.018.82-.026 1.345-.026.22 0 .448.008.688.026.24.014.501.024.787.024.177 0 .373-.003.59-.01.219-.003.424-.008.624-.014.196-.004.368-.012.515-.017.15-.005.25-.008.304-.008l.22.122c.03.083.015.184-.04.304a4.316 4.316 0 0 0-.212.508c-.068.187-.13.378-.197.574l-1.182 3.622h4.887M134.07 166.625c.143.014.367-.038.674-.149a2.29 2.29 0 0 0 .821-.505c.13-.122.25-.307.359-.558.11-.252.165-.513.165-.786a.885.885 0 0 0-.084-.378c-.053-.12-.173-.178-.36-.178-.152 0-.312.08-.476.244a2.813 2.813 0 0 0-.458.63 5.857 5.857 0 0 0-.378.836 9.014 9.014 0 0 0-.262.844zm2.789 1.984l.032.163a2.065 2.065 0 0 1-.392.51 4.138 4.138 0 0 1-1.608.959c-.35.115-.726.171-1.128.171-.559 0-1.019-.159-1.379-.476-.36-.316-.541-.77-.541-1.36 0-.305.036-.637.105-.992.073-.353.185-.717.337-1.09a5.519 5.519 0 0 1 1.542-2.098 5.343 5.343 0 0 1 1.302-.836 3.53 3.53 0 0 1 1.435-.31c.457 0 .787.11.983.327.196.22.294.488.294.803 0 .46-.128.861-.385 1.204-.256.344-.624.655-1.105.927-.459.25-.898.429-1.312.532-.415.104-.78.166-1.1.19-.03.075-.062.21-.088.4a4.4 4.4 0 0 0-.042.632c0 .283.078.532.231.746.152.213.37.32.656.32.403 0 .752-.091 1.048-.272.293-.18.533-.372.723-.582l.132-.049.26.181M142.577 163.741h1.656l.082.148-.115.426-.212.148h-1.655l-1.344 3.605c-.046.13-.092.285-.149.459-.053.176-.08.312-.08.41l.09.222.27.089.22.041.239.106.088.174c-.004.07-.071.146-.202.23a3.622 3.622 0 0 1-.633.277c-.29.104-.697.216-1.221.336a.713.713 0 0 1-.368 0l-.262-.148-.165-.223-.056-.218c0-.166.012-.334.04-.51.03-.174.073-.342.139-.506l1.494-4.344h-1.28c-.11 0-.142-.06-.097-.18l.097-.427.18-.115h1.36l.886-2.392.14-.173c.058-.027.198-.045.416-.056.304-.023.57-.03.796-.027.222.007.412.01.565.01l.123.103.008.192-1.05 2.343M149.033 169.232c0 .152.038.268.108.344.072.076.216.124.435.148.188 0 .428-.092.728-.28.301-.185.583-.436.845-.752.524-.624.894-1.219 1.107-1.78.21-.563.32-1.133.32-1.712 0-.24-.04-.43-.113-.573-.08-.143-.176-.214-.298-.214-.218 0-.509.183-.876.55-.365.365-.746.86-1.141 1.481a6.88 6.88 0 0 0-.41.739c-.13.274-.246.541-.35.802a9.366 9.366 0 0 0-.255.731 2.02 2.02 0 0 0-.1.516zm3.626-10.095l.154.088-.024.204-2.656 5.919.164.08c.174-.27.363-.539.566-.801.202-.263.424-.495.665-.698.24-.2.504-.365.795-.49.286-.127.613-.188.976-.188a1 1 0 0 1 .504.129c.156.09.282.2.388.337.104.136.181.292.238.467.052.176.079.35.079.523 0 .232-.023.498-.073.804-.05.308-.138.633-.27.984-.132.349-.31.72-.54 1.105a6.57 6.57 0 0 1-.886 1.157c-.23.24-.47.46-.722.664-.249.203-.534.378-.852.523a4.856 4.856 0 0 1-1.08.345 7.108 7.108 0 0 1-1.394.123 1.84 1.84 0 0 1-1.026-.287c-.289-.192-.433-.488-.433-.893 0-.163.019-.345.059-.54.038-.199.082-.361.14-.495a181.44 181.44 0 0 1 1.733-4.578 582.746 582.746 0 0 1 1.804-4.482h1.69M157.524 169.461c.12 0 .245-.025.376-.073.13-.048.265-.135.4-.255a2.94 2.94 0 0 0 .436-.498c.155-.215.313-.479.477-.796a10.784 10.784 0 0 0 .695-1.605 9.54 9.54 0 0 0 .224-.762c.052-.235.08-.432.08-.583a.866.866 0 0 0-.14-.5c-.092-.137-.248-.205-.467-.205-.316 0-.606.15-.876.452-.268.299-.588.783-.96 1.448a6.309 6.309 0 0 0-.622 1.443c-.131.47-.195.876-.195 1.213 0 .164.047.325.147.484a.472.472 0 0 0 .425.237zm.23.951c-.24 0-.487-.043-.738-.132a1.994 1.994 0 0 1-.696-.424 2.225 2.225 0 0 1-.523-.78c-.137-.323-.205-.713-.205-1.17 0-.666.1-1.327.301-1.978.203-.65.535-1.225.992-1.727.34-.352.703-.596 1.09-.737a3.58 3.58 0 0 1 1.256-.213c.217 0 .461.03.728.097.268.065.518.184.753.36.235.175.43.417.59.73.16.311.237.72.237 1.22 0 .242-.023.52-.072.846-.05.321-.126.656-.231 1.008a5.88 5.88 0 0 1-.416 1.03 3.96 3.96 0 0 1-.655.92c-.32.347-.668.595-1.05.737-.384.141-.836.213-1.362.213M164.999 166.625c.14.014.366-.038.669-.149.308-.107.58-.277.821-.505.131-.122.251-.307.362-.558.108-.252.162-.513.162-.786a.943.943 0 0 0-.078-.378c-.058-.12-.178-.178-.363-.178-.153 0-.312.08-.475.244-.164.162-.32.374-.461.63-.14.259-.268.535-.375.836-.109.303-.196.582-.262.844zm2.785 1.984l.033.163a2.075 2.075 0 0 1-.393.51 4.116 4.116 0 0 1-1.607.959c-.35.115-.726.171-1.129.171-.557 0-1.019-.159-1.379-.476-.36-.316-.541-.77-.541-1.36 0-.305.036-.637.107-.992.072-.353.185-.717.336-1.09a5.602 5.602 0 0 1 1.541-2.098 5.369 5.369 0 0 1 1.303-.836c.465-.204.944-.31 1.436-.31.457 0 .785.11.981.327.196.22.296.488.296.803 0 .46-.13.861-.385 1.204-.258.344-.626.655-1.107.927-.46.25-.896.429-1.31.532a6.655 6.655 0 0 1-1.1.19c-.031.075-.063.21-.09.4a4.4 4.4 0 0 0-.041.632c0 .283.077.532.23.746.154.213.371.32.656.32.404 0 .754-.091 1.047-.272.297-.18.536-.372.724-.582l.13-.049.262.181M172.03 167.052c.326.065.663.025 1.006-.123a3.6 3.6 0 0 0 .952-.598c.29-.251.527-.524.71-.828.187-.299.28-.564.28-.796l-.097-.278a.327.327 0 0 0-.278-.129c-.11 0-.248.05-.419.153a4.9 4.9 0 0 0-.517.371c-.174.143-.334.28-.475.417-.143.136-.24.238-.293.303l-.264.296-.228.31zm-2.787 3.196l-.131-.081v-.164l4.064-10.803 1.885-.063.139.106-.04.22-2.475 5.589.114.067c.132-.176.304-.372.517-.59.213-.22.448-.425.705-.616.256-.19.527-.349.81-.474.284-.127.568-.188.852-.188.317 0 .585.086.805.26.217.177.327.445.327.804 0 .341-.12.658-.36.957-.24.303-.524.572-.854.812a7.515 7.515 0 0 1-.998.623c-.338.176-.611.301-.82.377v.133l1.214 1.852c.139.206.26.352.359.434l.277.124.28.078.18.208c0 .08-.097.168-.294.26-.198.095-.58.174-1.148.24-.448.054-.783-.009-.999-.19-.22-.182-.41-.444-.575-.795l-.705-1.639-.23-.236-.294-.06-.916 2.642c-.023.074-.104.113-.248.113h-1.441M187.237 163.413c.143 0 .164.172.066.516-.1.344-.282.775-.547 1.296a18.476 18.476 0 0 1-1.001 1.687c-.398.608-.831 1.17-1.295 1.69-.464.517-.933.95-1.41 1.294-.474.344-.926.516-1.351.516l-.32-.09-.279-.214-.197-.261-.056-.238c0-.174.02-.356.056-.54.037-.188.097-.4.18-.64.082-.241.186-.512.314-.812.123-.3.268-.65.434-1.058.217-.544.381-.99.492-1.334.109-.345.162-.569.162-.68 0-.185-.093-.28-.28-.28l-.046-.016-.16-.057-.098-.107.118-.18c.092-.077.258-.168.5-.278.24-.11.582-.235 1.03-.376a.536.536 0 0 1 .352-.011l.263.183.172.285.065.312c0 .185-.065.499-.196.936-.13.436-.36 1.059-.688 1.867-.208.501-.374.928-.498 1.278-.126.351-.188.602-.188.755l.089.213.187.08c.066 0 .197-.094.394-.286.196-.191.41-.422.639-.688.228-.268.453-.542.673-.82.219-.278.376-.499.475-.662.143-.242.264-.481.37-.716.103-.233.214-.525.335-.874l.524-1.575.108-.056.21-.033.238-.016.164-.01M189.17 168.592c0 .185.034.315.1.385.066.072.165.107.295.107.11 0 .276-.113.5-.344.224-.23.452-.5.688-.812.235-.31.458-.624.666-.94.208-.319.348-.561.424-.723.098-.218.186-.462.262-.737.078-.273.116-.553.116-.836 0-.185-.08-.355-.237-.508-.157-.153-.319-.228-.485-.228-.403 0-.814.37-1.23 1.113-.414.734-.701 1.402-.86 2.008-.158.607-.238 1.111-.238 1.515zm5.427-5.424c.119 0 .164.065.132.196-.066.175-.156.428-.269.755-.117.326-.233.665-.355 1.017-.12.347-.233.676-.337.983-.101.305-.17.522-.203.653a7.865 7.865 0 0 0-.132.452c-.066.235-.134.483-.213.747-.076.261-.145.502-.204.728a2.17 2.17 0 0 0-.09.434c0 .131.066.198.197.198l.22.122.066.295c-.04.115-.176.235-.409.36-.236.127-.636.228-1.205.304-.252.032-.428-.015-.526-.14a.617.617 0 0 1-.146-.383l.024-.198c.017-.076.048-.191.089-.346a38.069 38.069 0 0 1 .527-1.59l-.148-.08c-.166.25-.352.532-.566.844a7.03 7.03 0 0 1-.729.893 4.213 4.213 0 0 1-.901.713 2.1 2.1 0 0 1-1.066.287.764.764 0 0 1-.36-.107 1.425 1.425 0 0 1-.369-.286 1.72 1.72 0 0 1-.29-.41 1.07 1.07 0 0 1-.111-.476c0-.34.053-.72.162-1.148.11-.424.26-.857.451-1.292.193-.438.425-.864.697-1.28.272-.414.571-.78.895-1.098a4.478 4.478 0 0 1 1.032-.77 2.382 2.382 0 0 1 1.139-.294c.369 0 .649.061.833.188.187.125.335.254.444.382l.261-.473c.078-.121.176-.18.296-.18h1.164M195.187 170.248c-.143 0-.191-.059-.148-.181l1.13-3.146a27.713 27.713 0 0 0 .672-2.008c.046-.148.067-.248.067-.304 0-.173-.072-.261-.212-.261l-.092-.172a.543.543 0 0 1 .065-.376c.071-.139.227-.264.462-.377.234-.116.604-.172 1.104-.172.253 0 .425.072.517.221.092.147.14.285.14.417 0 .12-.077.376-.23.771-.154.392-.34.847-.56 1.36l.149.115.517-.756c.225-.327.488-.646.796-.958.304-.313.64-.584 1.005-.818a2.116 2.116 0 0 1 1.158-.352.95.95 0 0 1 .457.105c.132.07.241.161.33.27.087.111.151.23.195.36.043.133.064.253.064.362 0 .088-.013.201-.045.344-.035.141-.09.33-.159.565-.07.236-.168.528-.294.878-.124.349-.276.774-.448 1.277-.198.559-.336.95-.412 1.18-.078.23-.115.395-.115.492 0 .187.07.277.213.277l.155.108.033.263c-.048.104-.197.215-.442.335-.247.122-.67.236-1.268.345-.255.045-.427-.008-.519-.157a.876.876 0 0 1-.139-.466c0-.152.078-.464.238-.933.16-.47.364-1.067.616-1.788.065-.185.134-.388.213-.605.075-.219.147-.434.212-.64.065-.207.121-.39.163-.551.045-.156.065-.273.065-.352 0-.24-.107-.36-.327-.36-.098 0-.238.076-.417.223-.18.146-.38.336-.597.565a8.913 8.913 0 0 0-.658.77c-.217.286-.409.557-.574.82-.184.285-.351.547-.499.794-.147.245-.25.441-.303.581l-.64 1.836-.072.074-.173.025h-1.393M124.639 194.292c-.84 0-1.562-.095-2.163-.285-.601-.192-1.092-.447-1.475-.762a2.959 2.959 0 0 1-.844-1.1 3.258 3.258 0 0 1-.269-1.31c0-.395.079-.756.245-1.09.164-.334.384-.622.666-.87a3.224 3.224 0 0 1 2.121-.794c.6 0 1.068.152 1.401.45.332.301.5.686.5 1.157 0 .184-.072.37-.216.548-.14.181-.385.27-.736.27-.153 0-.308-.062-.466-.187a.764.764 0 0 1-.287-.484c-.099-.678-.333-1.022-.705-1.031l-.336.147a1.17 1.17 0 0 0-.31.392 2.424 2.424 0 0 0-.222.63 3.997 3.997 0 0 0-.083.862c0 .338.083.674.245 1.009.163.33.394.63.69.9a3.472 3.472 0 0 0 2.36.893c.656 0 1.229-.104 1.72-.313.492-.205.9-.484 1.222-.833a3.53 3.53 0 0 0 .73-1.214c.162-.46.245-.938.245-1.442 0-.568-.055-1.084-.165-1.548a8.7 8.7 0 0 0-.402-1.288 14.815 14.815 0 0 0-.505-1.123 15.947 15.947 0 0 1-.501-1.075 17.137 17.137 0 0 1-.615-1.606c-.157-.491-.24-.944-.24-1.36 0-.436.09-.846.264-1.228a2.87 2.87 0 0 1 .761-1.002 3.737 3.737 0 0 1 1.206-.67 4.8 4.8 0 0 1 1.59-.246c.524 0 .952.064 1.287.198.333.13.59.286.78.474.184.186.308.374.375.563.064.195.098.344.098.453 0 .252-.088.491-.262.72-.175.23-.448.344-.82.344a.769.769 0 0 1-.607-.261c-.15-.173-.228-.355-.228-.54 0-.167.017-.304.056-.419l.141-.304c.086-.153.056-.304-.09-.449-.148-.148-.414-.22-.795-.22-.285 0-.532.047-.739.145a1.526 1.526 0 0 0-.525.403c-.14.168-.243.361-.31.581a2.338 2.338 0 0 0-.098.688c0 .612.101 1.168.304 1.674.201.501.437 1.036.71 1.605.165.36.338.715.518 1.064.179.35.343.712.492 1.083.145.37.268.753.36 1.148.092.39.14.814.14 1.264a5.065 5.065 0 0 1-1.697 3.841c-.54.487-1.192.865-1.958 1.139-.764.273-1.617.409-2.558.409M135.456 179.26c.395 0 .684.093.877.272a.876.876 0 0 1 .197 1.033 1.289 1.289 0 0 1-.607.597.977.977 0 0 1-.432.1c-.319 0-.572-.087-.762-.26-.194-.177-.289-.423-.289-.74 0-.251.099-.48.296-.69a.965.965 0 0 1 .72-.312zm-.867 9.788c.196 0 .288.055.278.164-.011.11-.098.227-.254.352-.157.127-.382.243-.674.353-.287.11-.618.166-.99.166-.25 0-.418-.055-.509-.159l-.13-.336c0-.075.02-.181.057-.319.038-.134.098-.325.172-.565.077-.24.174-.536.294-.885.123-.351.268-.778.444-1.279l.442-1.296c.08-.217.137-.401.181-.55a1.45 1.45 0 0 0 .065-.369c0-.14-.069-.21-.212-.21l-.15-.051-.163-.141-.057-.203c.005-.079.073-.161.197-.255.125-.093.32-.184.583-.277.261-.095.634-.183 1.113-.27.253-.057.443-.011.575.13.13.143.196.293.196.459 0 .185-.048.412-.14.682-.092.267-.222.639-.383 1.12l-.888 2.51a9.114 9.114 0 0 0-.212.664c-.032.137-.05.248-.05.334l.04.156.175.075M136.655 189.917c-.144 0-.191-.061-.15-.18l1.13-3.15c.098-.26.193-.516.278-.77.09-.25.166-.482.231-.696.065-.214.121-.392.164-.54.044-.148.065-.249.065-.305 0-.173-.072-.26-.212-.26l-.092-.172a.555.555 0 0 1 .066-.379c.072-.134.225-.261.462-.377.235-.113.602-.17 1.103-.17.253 0 .425.073.519.22a.795.795 0 0 1 .138.418c0 .12-.077.376-.23.77-.152.394-.34.846-.558 1.36l.15.115.514-.753c.226-.328.49-.648.798-.96.302-.31.638-.583 1.005-.819a2.111 2.111 0 0 1 1.156-.352c.176 0 .33.036.46.108.13.068.24.162.328.27.088.109.153.229.196.36.043.132.065.252.065.361 0 .087-.016.201-.05.344-.031.143-.084.33-.155.564-.07.235-.17.527-.295.877-.126.35-.274.776-.45 1.279-.195.559-.332.95-.41 1.18-.077.23-.114.396-.114.493 0 .187.069.279.213.279l.153.108.035.261c-.048.106-.197.215-.443.336-.245.119-.668.236-1.269.346-.253.041-.424-.01-.517-.159a.854.854 0 0 1-.139-.465c0-.154.079-.467.237-.934a154.344 154.344 0 0 1 .828-2.394 25.566 25.566 0 0 0 .376-1.19c.046-.157.066-.276.066-.353 0-.24-.108-.36-.327-.36-.099 0-.239.075-.417.221-.182.148-.38.338-.6.567a9.38 9.38 0 0 0-.656.77c-.216.285-.408.558-.572.82-.187.283-.352.547-.502.794-.146.247-.246.44-.301.583l-.639 1.836-.074.072-.172.026h-1.392M148.832 183.41h1.653l.082.146-.114.425-.213.15h-1.655l-1.345 3.606c-.041.131-.092.284-.145.458a1.405 1.405 0 0 0-.084.412l.09.22.27.09.222.04.239.107.088.175c-.005.068-.073.146-.204.229a3.954 3.954 0 0 1-.63.277c-.29.104-.697.215-1.222.338a.742.742 0 0 1-.368 0l-.264-.15-.164-.222-.055-.22c0-.166.012-.334.039-.51a2.52 2.52 0 0 1 .14-.508l1.492-4.342h-1.28c-.107 0-.14-.06-.099-.182l.099-.425.183-.115h1.358l.887-2.394.137-.171c.063-.028.199-.047.42-.059.304-.021.571-.029.794-.024.222.007.413.01.565.01l.123.105.008.189-1.047 2.344M152.172 186.293c.144.011.367-.037.673-.149.307-.108.579-.276.82-.504.132-.121.25-.308.36-.557.11-.255.166-.516.166-.791a.86.86 0 0 0-.086-.375c-.052-.12-.173-.18-.358-.18-.152 0-.312.082-.475.244a2.804 2.804 0 0 0-.46.632 5.63 5.63 0 0 0-.376.835 9.35 9.35 0 0 0-.264.845zm2.788 1.984l.033.164a2.135 2.135 0 0 1-.394.51c-.186.186-.411.361-.68.532a4.144 4.144 0 0 1-.926.425c-.35.116-.728.175-1.129.175-.561 0-1.019-.162-1.379-.478-.358-.317-.541-.77-.541-1.36 0-.305.036-.637.107-.994.072-.355.182-.716.336-1.09a5.544 5.544 0 0 1 1.541-2.097c.404-.35.837-.628 1.304-.837.464-.206.94-.31 1.433-.31.46 0 .787.11.983.328.196.219.295.486.295.802 0 .46-.128.86-.386 1.205-.256.344-.624.653-1.106.927-.456.25-.895.428-1.311.532-.415.105-.78.165-1.097.188a1.756 1.756 0 0 0-.09.404c-.028.19-.042.401-.042.632 0 .284.078.532.229.744.156.213.372.32.659.32.4 0 .75-.09 1.046-.272.295-.179.535-.372.72-.582l.134-.049.261.181M157.172 189.917c-.14 0-.19-.05-.145-.148l.785-2.656c.065-.229.145-.49.237-.786.092-.298.18-.583.262-.862.084-.277.15-.529.206-.753.052-.223.082-.375.082-.452l-.074-.221-.206-.09-.163-.048-.107-.164c.019-.077.122-.182.318-.32.198-.136.574-.305 1.132-.5a.645.645 0 0 1 .394-.034l.263.165.145.261.051.264c0 .151-.07.416-.205.795l-.5 1.368.182.099c.098-.23.235-.51.407-.836a9.4 9.4 0 0 1 .592-.96c.217-.31.465-.575.737-.794.272-.218.558-.328.851-.328.243 0 .456.082.65.244a.817.817 0 0 1 .286.643 1.31 1.31 0 0 1-.261.752l-.24.23-.238.08c-.229 0-.41-.043-.541-.129l-.196-.132-.261-.066c-.132 0-.28.072-.444.213a3.534 3.534 0 0 0-.491.535 6.71 6.71 0 0 0-.819 1.384c-.089.196-.176.416-.262.656-.088.241-.18.513-.279.818l-.525 1.659-.215.113h-1.408M166.005 186.72c.327.065.664.024 1.01-.124.344-.144.66-.345.952-.599.286-.249.526-.525.71-.826.187-.302.279-.566.279-.795l-.097-.28a.332.332 0 0 0-.282-.13c-.108 0-.245.053-.414.157-.171.101-.343.225-.519.368a8.785 8.785 0 0 0-.476.416 5.503 5.503 0 0 0-.293.304l-.264.296-.228.31zm-2.785 3.197l-.13-.082v-.164l4.065-10.802 1.882-.065.14.105-.041.223-2.473 5.588.113.067c.13-.176.303-.372.517-.59a5.63 5.63 0 0 1 .706-.616c.254-.192.525-.35.808-.476.286-.125.569-.188.854-.188.316 0 .584.088.804.263.216.175.327.443.327.801 0 .34-.12.66-.36.96-.24.3-.527.571-.853.811a7.28 7.28 0 0 1-1.002.621c-.337.178-.61.304-.817.38v.131l1.212 1.852c.143.208.261.352.36.436l.28.121c.065 0 .156.028.279.083l.18.205c0 .08-.099.17-.296.262-.196.093-.578.172-1.144.24-.451.052-.784-.01-1-.192-.22-.18-.412-.444-.575-.794l-.707-1.64-.229-.237-.293-.057-.919 2.641c-.023.073-.105.113-.245.113h-1.443M176.167 178.804c.154 0 .193.099.114.295l-3.278 9.196c-.087.23-.12.404-.098.522.023.123.11.182.262.182l.173.057.172.148.033.204c-.022.079-.098.156-.229.237-.13.084-.33.162-.597.238a7.39 7.39 0 0 1-1.11.2l-.25-.052-.224-.172-.164-.236-.064-.231c0-.067.016-.161.049-.287.033-.126.073-.262.123-.41l.148-.435c.046-.141.096-.27.138-.392l3.131-9.064h1.67M177.085 188.26c0 .188.032.316.099.387.064.07.163.106.295.106.108 0 .277-.113.5-.345.222-.23.453-.5.686-.812.235-.31.459-.623.666-.943.208-.316.349-.557.426-.721a5.31 5.31 0 0 0 .262-.737c.078-.274.114-.554.114-.835 0-.187-.08-.355-.237-.508-.16-.156-.32-.23-.484-.23-.404 0-.813.37-1.228 1.115-.416.731-.703 1.402-.861 2.007-.159.608-.238 1.113-.238 1.516zm5.424-5.424c.123 0 .164.065.131.196-.064.175-.153.425-.27.755-.114.328-.233.666-.351 1.014-.12.35-.234.676-.336.984a8.917 8.917 0 0 0-.206.656c-.021.066-.065.215-.13.45-.066.237-.138.484-.214.748a30.56 30.56 0 0 0-.204.728c-.062.224-.092.369-.092.437 0 .13.066.195.199.195l.221.124.066.294c-.04.115-.176.234-.411.359-.236.128-.637.228-1.205.307-.251.03-.426-.015-.523-.143a.605.605 0 0 1-.15-.384l.027-.197c.016-.075.044-.19.09-.343.044-.155.106-.356.188-.608.082-.25.196-.579.336-.985l-.146-.082c-.165.252-.356.535-.566.847-.215.31-.458.61-.73.892a4.178 4.178 0 0 1-.901.715c-.33.189-.684.288-1.064.288a.76.76 0 0 1-.363-.11 1.525 1.525 0 0 1-.37-.285 1.84 1.84 0 0 1-.287-.41 1.052 1.052 0 0 1-.113-.474c0-.34.056-.723.164-1.15.109-.427.261-.857.45-1.295a8.34 8.34 0 0 1 .696-1.276c.275-.418.572-.784.894-1.102a4.552 4.552 0 0 1 1.032-.768 2.372 2.372 0 0 1 1.14-.296c.372 0 .65.063.836.188.185.126.333.254.444.386l.26-.475c.078-.121.174-.18.296-.18h1.162M184.952 188.26c0 .188.033.316.097.387.067.07.164.106.296.106.11 0 .275-.113.499-.345.225-.23.455-.5.69-.812.234-.31.457-.623.663-.943.207-.316.35-.557.427-.721.097-.219.184-.464.261-.737a3.06 3.06 0 0 0 .114-.835.686.686 0 0 0-.236-.508c-.16-.156-.32-.23-.484-.23-.404 0-.812.37-1.228 1.115-.416.731-.703 1.402-.862 2.007-.157.608-.237 1.113-.237 1.516zm5.424-5.424c.123 0 .164.065.133.196-.068.175-.156.425-.273.755-.112.328-.232.666-.35 1.014-.12.35-.233.676-.337.984a9.64 9.64 0 0 0-.205.656c-.02.066-.065.215-.13.45-.066.237-.138.484-.214.748a30.56 30.56 0 0 0-.204.728c-.061.224-.092.369-.092.437 0 .13.065.195.197.195l.222.124.066.294c-.038.115-.176.234-.412.359-.233.128-.636.228-1.202.307-.251.03-.427-.015-.526-.143a.619.619 0 0 1-.148-.384l.026-.197c.016-.075.045-.19.089-.343.045-.155.107-.356.188-.608.084-.25.196-.579.337-.985l-.146-.082c-.163.252-.354.535-.566.847-.213.31-.458.61-.73.892a4.14 4.14 0 0 1-.9.715c-.33.189-.684.288-1.066.288a.764.764 0 0 1-.362-.11 1.52 1.52 0 0 1-.37-.285 1.672 1.672 0 0 1-.284-.41 1.04 1.04 0 0 1-.117-.474c0-.34.056-.723.165-1.15a8.46 8.46 0 0 1 .451-1.295c.19-.436.423-.863.696-1.276a6.7 6.7 0 0 1 .893-1.102 4.581 4.581 0 0 1 1.032-.768 2.376 2.376 0 0 1 1.14-.296c.371 0 .652.063.836.188.188.126.334.254.443.386l.261-.475c.078-.121.178-.18.296-.18h1.163M192.197 190.083c-.592 0-1.033-.096-1.321-.279-.288-.188-.435-.423-.435-.707 0-.252.07-.448.206-.59a.666.666 0 0 1 .5-.212c.218 0 .396.066.532.202.137.139.253.327.353.567.043.121.105.22.19.295l.251.114c.503 0 .76-.365.771-1.098 0-.13-.019-.251-.057-.36l-.163-.338a13.45 13.45 0 0 0-.247-.374 11.149 11.149 0 0 1-.304-.484c-.118-.196-.222-.367-.309-.518a3.57 3.57 0 0 1-.213-.4 1.89 1.89 0 0 1-.123-.37 1.92 1.92 0 0 1-.041-.419c0-.284.056-.556.173-.82.112-.26.285-.495.513-.703.23-.208.516-.372.855-.492.339-.12.73-.18 1.177-.18.164 0 .331.016.502.05.17.032.32.086.452.162.13.078.24.18.325.312.088.132.132.29.132.476 0 .251-.061.451-.187.598-.126.148-.31.222-.552.222a.764.764 0 0 1-.465-.149c-.136-.097-.221-.279-.253-.541a1.034 1.034 0 0 0-.126-.336l-.268-.155a.633.633 0 0 0-.418.147c-.115.101-.174.35-.174.756 0 .152.03.305.092.458.062.154.135.299.23.443.093.141.188.276.285.4.099.128.181.227.247.304.262.317.428.596.5.835.07.241.108.521.108.838 0 .327-.063.632-.183.919-.12.284-.293.532-.521.745-.23.214-.519.379-.864.499a3.5 3.5 0 0 1-1.17.183" />
</svg>
