<svg xmlns="http://www.w3.org/2000/svg" viewBox="0 0 306 306">
	<path fill="#487d83" d="M304.763 153.618C304.763 237.776 236.539 306 152.38 306 68.227 306 0 237.776 0 153.618S68.227 1.238 152.381 1.238c84.158 0 152.382 68.222 152.382 152.38" />
	<path fill="#00c1ff" d="M210.687 208.226a4.891 4.891 0 0 1 4.893 4.892 4.89 4.89 0 0 1-4.893 4.892 4.89 4.89 0 0 1-4.89-4.892 4.89 4.89 0 0 1 4.89-4.892zm0-35.062a4.89 4.89 0 1 1 0 9.781 4.891 4.891 0 0 1 0-9.781zm-20.794 24.053a4.893 4.893 0 0 1 0-9.784 4.891 4.891 0 1 1 0 9.784zm0 35.064A4.894 4.894 0 0 1 185 227.39a4.894 4.894 0 0 1 4.894-4.89 4.892 4.892 0 1 1 0 9.782zm-24.461-49.336a4.895 4.895 0 0 1-4.897-4.892 4.894 4.894 0 0 1 9.786 0 4.891 4.891 0 0 1-4.889 4.892zm0 35.065a4.894 4.894 0 0 1-4.897-4.892 4.895 4.895 0 0 1 4.897-4.892c2.7 0 4.89 2.19 4.89 4.892a4.89 4.89 0 0 1-4.89 4.892zm-20.797-20.793a4.89 4.89 0 0 1-4.892-4.893 4.889 4.889 0 0 1 4.892-4.89 4.893 4.893 0 1 1 0 9.783zm0 35.064a4.89 4.89 0 0 1-4.892-4.892 4.894 4.894 0 0 1 9.787 0 4.894 4.894 0 0 1-4.895 4.892zm-24.463-49.336a4.891 4.891 0 0 1 0-9.781c2.7 0 4.895 2.19 4.895 4.89a4.896 4.896 0 0 1-4.895 4.891zm0 35.065a4.891 4.891 0 1 1 0-9.784c2.7 0 4.895 2.19 4.895 4.892a4.894 4.894 0 0 1-4.895 4.892zm-20.796-20.793a4.89 4.89 0 0 1-4.89-4.893 4.89 4.89 0 1 1 9.781 0 4.892 4.892 0 0 1-4.891 4.893zm0 35.064a4.89 4.89 0 0 1-4.89-4.892 4.892 4.892 0 1 1 4.89 4.892zm90.517-70.13a4.877 4.877 0 0 1-3.972-2.038h-37.314a4.881 4.881 0 0 1-3.972 2.039 4.885 4.885 0 0 1-3.972-2.039H103.35a4.886 4.886 0 0 1-3.975 2.039 4.887 4.887 0 0 1-3.973-2.039h-9.07v81.55h132.099v-81.55h-24.567a4.885 4.885 0 0 1-3.972 2.039" />
	<path fill="#f4ece0" d="M189.69 222.498a4.891 4.891 0 1 0 0 9.783c2.703 0 4.89-2.19 4.89-4.892a4.888 4.888 0 0 0-4.89-4.89zm-45.258 0c-2.7 0-4.895 2.19-4.895 4.891a4.893 4.893 0 1 0 4.895-4.89zm-45.26 0a4.892 4.892 0 1 0 0 9.783c2.7 0 4.895-2.19 4.895-4.892a4.895 4.895 0 0 0-4.895-4.89zm111.312-4.488a4.89 4.89 0 0 0 4.892-4.892 4.89 4.89 0 0 0-4.892-4.892 4.895 4.895 0 0 0-4.893 4.892 4.894 4.894 0 0 0 4.893 4.892zm-20.793-30.577a4.891 4.891 0 1 0 4.89 4.89 4.887 4.887 0 0 0-4.89-4.89zm-24.466 20.793a4.893 4.893 0 1 0-.003 9.787 4.893 4.893 0 0 0 .003-9.787zm-20.793-20.793a4.894 4.894 0 0 0-4.895 4.89 4.893 4.893 0 1 0 4.895-4.89zm-24.467 20.793a4.89 4.89 0 0 0-4.89 4.892 4.89 4.89 0 0 0 4.89 4.892 4.892 4.892 0 1 0 0-9.784zm-20.793-20.793a4.892 4.892 0 0 0 0 9.784c2.7 0 4.895-2.19 4.895-4.893a4.894 4.894 0 0 0-4.895-4.89zm111.312-4.488a4.892 4.892 0 1 0 0-9.783 4.892 4.892 0 0 0 0 9.783zm-20.793-20.793a4.885 4.885 0 0 0 3.972-2.039h-7.946a4.878 4.878 0 0 0 3.974 2.039zm-24.466 11.012a4.893 4.893 0 0 0-4.894 4.89 4.894 4.894 0 0 0 9.786 0 4.89 4.89 0 0 0-4.892-4.89zm-20.793-11.012a4.889 4.889 0 0 0 3.973-2.039h-7.944a4.88 4.88 0 0 0 3.971 2.039zm-24.467 11.012a4.89 4.89 0 1 0 0 9.781 4.894 4.894 0 0 0 4.895-4.892c0-2.7-2.192-4.89-4.895-4.89zM95.2 160.114h7.946a4.885 4.885 0 0 1-3.973 2.038 4.885 4.885 0 0 1-3.973-2.039" />
	<path fill="#8f3e1d" d="M223.328 106.983H81.435v53.13h141.893v-53.13" />
	<path fill="#ec1d27" d="M160.537 241.642h-16.309V105.884h16.31v135.758" />
	<path fill="#fff" d="M161.79 104.505c4.363-3.253 27.274-17.237 22.913-24.26-8.69-14-21.343 19.758-24.694 25.079-.521.832-4.261 1.485-3.892.67 3.008-6.687 4.794-14.34 4.942-21.67.104-5.05-.06-15.719-6.886-16.823-17.757-2.865-2.173 32.504.174 38.607.329.86-3.382 1.944-3.938 1.059-4.569-7.263-8.377-16.591-14.502-22.668-3.03-3.006-6.698-8.927-11.172-9.832-5.776-1.171-6.978 5.314-5.094 8.738 5.896 10.716 18.596 14.998 28.191 21.423.717.481-2.821 1.8-3.705 1.368-4.712-2.31-9.422-4.621-14.13-6.927-2.921-1.434-19.333-11.393-20.714-2.862-1.852 11.436 38.377 9.396 44.509 9.418 8.584.036 17.193.028 25.768-.48 2.817-.17 5.7-.337 8.49-.786 3.655-.595 9.447-1.968 8.914-6.926-.145-1.345-.332-3.092-1.419-4.076-6.94-6.304-24.565 6.842-30.722 11.132-.726.508-4.688.968-3.032-.184 5.966-4.158 12.365-7.848 19.02-10.781 4.048-1.783 14.677-6.321 18.441-1.533 12.564 15.988-33.664 15.258-39.33 15.296-12.68.086-25.557.242-38.18-1.114-3.277-.35-22.769-4.666-15.275-11.018 5.38-4.562 13.232-4.318 19.214-1.387l22.151 10.86c-1.235.453-2.47.91-3.705 1.368-7.156-4.792-35.258-16.4-28.396-28.63 5.112-9.126 15.609-3.389 20.453 1.945 7.328 8.074 12.373 17.394 18.163 26.597l-3.938 1.059c-4.416-11.498-17.962-37.502 1.879-41.302 19.685-3.768 11.765 30.467 7.721 39.459l-3.892.67c5.519-8.766 12.622-36.717 28.11-30.366 15.482 6.347-14.104 25.11-19.404 29.061-.718.534-4.659 1.03-3.032-.184" />
</svg>
