<svg xmlns="http://www.w3.org/2000/svg" viewBox="0 0 306 306">
	<path fill="#487d83" d="M304.773 153.619c0 84.157-68.226 152.381-152.386 152.381S0 237.776 0 153.619C0 69.463 68.227 1.239 152.387 1.239s152.386 68.224 152.386 152.38" />
	<path fill="#866b1f" d="M197.387 135.724c-21.414 3.552-40.054 1.996-56.947-9.57 6.853 22.309 41.533 51.43 77.44 46.271 12.733-1.838 31.32-13.073 27.013-28.877-5.773-21.135-33.173-10.21-47.506-7.824" />
	<path fill="#2a9640" d="M244.76 102.085c-.827 1.208 1.267 4.264.573 5.483-.773 1.37-4.413 1.057-4.92 2.264-.64 1.501 2.027 4.107 1.8 5.367-.36 2.014-2.746 4.286-1.773 5.101.973.823 2.827-1.923 4.72-2.764 1.187-.521 4.4 1.421 5.773.31 1.134-.915-.133-4.382.947-5.586.96-1.073 4.627-.23 5.56-1.58.92-1.35-1.213-4.421-.56-5.716.733-1.445 4.467-1.56 4.907-2.944.546-1.695-2.44-3.947-2.374-5.247.107-2.077 2.027-4.836.907-5.438-1.12-.598-2.413 2.478-4.173 3.561-1.107.685-4.507-.839-5.694.31-.946.927.654 4.185-.346 5.406-.894 1.097-4.52.26-5.347 1.473" />
	<path fill="#216c33" d="M242.88 109.152c-.933.213-1.907.445-2.093.867-.28.682.373 1.805.933 2.806.52.92 1.013 1.796.893 2.483-.16.896-.693 1.833-1.16 2.65-.44.763-1.053 1.806-.76 2.047.28.24 1.214-.538 1.894-1.126.72-.626 1.533-1.342 2.386-1.714.64-.288 1.627-.026 2.654.244 1.133.295 2.413.612 3.04.114.4-.32.373-1.36.333-2.347-.027-1.216-.08-2.461.56-3.193.56-.632 1.693-.708 2.893-.803 1.107-.085 2.254-.19 2.627-.739.373-.546.053-1.641-.267-2.696-.346-1.142-.693-2.217-.306-2.974.453-.867 1.64-1.278 2.8-1.69.933-.336 1.92-.682 2.08-1.2.253-.761-.52-1.829-1.2-2.769-.627-.863-1.227-1.67-1.187-2.383.04-.929.413-1.956.747-2.862.306-.85.706-2.015.373-2.187-.32-.177-1.08.785-1.653 1.48-.6.747-1.294 1.587-2.08 2.07-.6.373-1.587.24-2.654.094-1.146-.159-2.426-.352-2.96.167-.36.338-.2 1.328-.067 2.274.174 1.168.307 2.382-.266 3.107-.52.639-1.627.73-2.8.81-1.08.08-2.174.143-2.534.643-.333.496 0 1.547.32 2.571.36 1.115.667 2.18.267 2.89l-.093.138c-.506.712-1.626.98-2.72 1.228zm4.6-8.247c.96-.069 1.96-.152 2.347-.622.333-.522.2-1.53.053-2.496-.16-1.182-.32-2.302.266-2.867.787-.775 2.294-.552 3.627-.37.867.117 1.76.231 2.12.01.68-.424 1.333-1.21 1.907-1.91.933-1.16 1.72-2.178 2.706-1.66.96.515.547 1.757.027 3.178-.306.861-.666 1.833-.706 2.65-.013.422.52 1.146 1.04 1.851.8 1.091 1.693 2.344 1.32 3.488-.267.818-1.387 1.271-2.56 1.688-.96.344-1.96.682-2.36 1.307v.005c-.254.487.053 1.45.346 2.393.387 1.227.76 2.512.174 3.367-.587.856-1.934.976-3.214 1.077-1 .074-2.013.142-2.44.619-.373.528-.333 1.567-.293 2.579.04 1.24.04 2.422-.627 2.973-.933.75-2.426.375-3.746.028-.84-.221-1.72-.459-2.107-.29-.747.329-1.52 1.006-2.2 1.598-1.133.981-2.133 1.804-2.973 1.09-.84-.714-.187-1.805.533-3.078.453-.768.947-1.643 1.08-2.424.08-.407-.36-1.19-.787-1.945-.666-1.17-1.413-2.484-.986-3.5.306-.719 1.413-.992 2.586-1.258.947-.218 1.934-.45 2.347-1.028v-.005c.267-.449-.027-1.402-.32-2.318-.36-1.196-.76-2.416-.227-3.187.534-.78 1.814-.852 3.067-.943" />
	<path fill="#2a9640" d="M250.947 104.705c-1.267.888-.28 4.37-1.414 5.296-1.253 1.036-4.733-.36-5.666.602-1.16 1.174.586 4.396-.08 5.485-1.054 1.74-4.147 3.053-3.467 4.107.68 1.062 3.4-.843 5.547-1.01 1.346-.106 3.746 2.746 5.466 2.171 1.414-.477 1.44-4.135 2.92-4.912 1.334-.699 4.547 1.293 5.92.328 1.4-.979.494-4.595 1.614-5.616 1.253-1.148 4.88-.05 5.84-1.235 1.173-1.464-.84-4.605-.28-5.838.893-1.98 3.84-4.086 2.973-5.028-.853-.927-3.293 1.685-5.44 2.19-1.333.323-4.107-2.158-5.72-1.393-1.293.61-.933 4.196-2.36 5.055-1.293.76-4.573-1.099-5.853-.202" />
	<path fill="#216c33" d="M242.107 118.38c-.854.69-1.6 1.37-1.44 1.623.2.316 1.36-.102 2.226-.419.907-.337 1.947-.732 2.907-.803.733-.056 1.6.498 2.507 1.088.986.636 2.106 1.36 2.88 1.098.453-.154.84-1.088 1.173-2.079.4-1.168.88-2.39 1.68-2.808.787-.41 1.907-.113 3.093.19 1.094.275 2.24.551 2.8.158.534-.376.654-1.54.734-2.643.093-1.21.2-2.37.826-2.937.76-.685 2.067-.693 3.334-.715 1.04-.016 2.12-.046 2.466-.477.48-.641.2-1.941-.093-3.067-.28-1.034-.546-2.005-.24-2.682.387-.88 1.16-1.774 1.84-2.552.774-.91 1.414-1.8 1.214-2.022-.254-.278-1.374.436-2.187.939-.88.544-1.88 1.145-2.827 1.377-.733.176-1.653-.256-2.64-.712-1.066-.496-2.266-1.061-3-.72-.426.203-.68 1.151-.92 2.155-.266 1.181-.64 2.42-1.413 2.884-.747.445-1.88.195-3.067-.076-1.093-.248-2.226-.515-2.746-.145-.507.349-.56 1.448-.614 2.5-.053 1.153-.16 2.265-.773 2.778-.747.618-2.04.52-3.267.408-1.013-.088-2.04-.189-2.386.167-.494.54-.267 1.767-.053 2.867.2 1.009.386 1.966.027 2.561-.093.15-.2.299-.32.445-.467.591-1.134 1.14-1.72 1.619zm1.44-8.07c.586-.6 1.76-.486 3-.38 1.08.095 2.2.178 2.706-.242.4-.319.467-1.317.52-2.257.053-1.23.16-2.53.907-3.051.813-.57 2.133-.265 3.413.021.974.219 1.987.44 2.467.156.533-.306.84-1.386 1.067-2.402.28-1.214.6-2.319 1.333-2.668 1.093-.515 2.493.141 3.747.714.8.368 1.626.751 2.066.644.827-.197 1.774-.765 2.587-1.28 1.36-.844 2.533-1.6 3.28-.79.36.389.36.917-.013 1.564-.267.477-.707 1.005-1.187 1.557-.653.772-1.346 1.563-1.706 2.357-.187.408.053 1.279.28 2.123.36 1.31.706 2.859-.053 3.805-.6.739-1.827.772-3.107.791-1.12.013-2.253.021-2.773.49-.4.365-.494 1.406-.56 2.4-.093 1.291-.28 2.68-1.094 3.253-.88.612-2.2.284-3.48-.044-.986-.252-1.986-.52-2.48-.263-.56.3-.96 1.359-1.306 2.377-.414 1.202-.894 2.298-1.667 2.56-1.16.395-2.48-.454-3.613-1.202-.747-.486-1.52-.988-1.96-.954-.827.058-1.814.432-2.68.755-1.44.53-2.68.957-3.267.036-.28-.444-.2-.927.24-1.445.32-.38.813-.771 1.333-1.19.72-.582 1.454-1.205 1.88-1.882.214-.355.053-1.214-.106-2.039-.24-1.2-.52-2.547.106-3.368l.12-.145" />
	<path fill="#2a9640" d="M253.667 106.524c-.36 1.557-4 1.88-4.507 3.205-.573 1.488 1.787 4.404 1.067 5.634-.88 1.514-4.48.674-5.387 1.556-1.453 1.413-2.227 4.7-3.4 4.217-1.16-.481.267-3.484-.093-5.563-.213-1.298-3.507-3.044-3.427-4.728.067-1.346 3.44-2.114 3.68-3.678.214-1.38-2.706-3.776-2.373-5.198.333-1.414 3.867-1.6 4.293-2.898.467-1.454-2.093-4.167-1.573-5.302.653-1.401 4.24-.838 5-1.778 1.2-1.499 1.28-4.696 2.493-4.423 1.227.267.467 3.339 1.12 5.319.4 1.244 3.907 2.505 4.014 4.228.093 1.422-3.254 2.605-3.414 4.18-.146 1.422 2.88 3.68 2.507 5.229" />
	<path fill="#216c33" d="M241.667 100.779c-.934.376-1.907.761-2.04 1.328-.134.581.52 1.516 1.16 2.422.693.99 1.346 1.934 1.213 2.74-.12.836-1.107 1.559-2.067 2.168-.826.514-1.586 1.028-1.6 1.478-.04.76.934 1.672 1.774 2.48.786.744 1.533 1.448 1.653 2.157.147.928-.013 2.01-.173 2.967-.147.888-.36 2.112-.013 2.25.28.115.826-.742 1.36-1.716.44-.833.96-1.812 1.6-2.432.493-.485 1.48-.541 2.52-.617 1.133-.073 2.413-.205 2.813-.859.267-.446-.12-1.421-.493-2.358-.467-1.151-.947-2.334-.614-3.224.294-.747 1.307-1.198 2.374-1.659.973-.419 2-.893 2.133-1.496.147-.633-.533-1.564-1.187-2.46-.733-.979-1.413-1.895-1.333-2.728.093-.855 1.027-1.665 1.947-2.396.786-.62 1.506-1.264 1.466-1.716-.04-.777-1.12-1.557-2.066-2.241-.88-.638-1.707-1.231-1.92-1.908-.294-.883-.32-1.946-.347-2.884-.027-.872-.08-2.062-.44-2.139-.28-.063-.64.823-.96 1.812-.28.85-.613 1.837-1.147 2.493-.4.51-1.346.647-2.346.783-1.08.148-2.294.31-2.6.936-.2.427.28 1.324.733 2.197.56 1.078 1.12 2.21.84 3.067l-.147.31c-.386.566-1.213.902-2.093 1.245zm3.04-8.504c.813-.111 1.653-.232 1.893-.538.467-.59.76-1.458 1.04-2.296.187-.597.373-1.164.6-1.57.32-.558.733-.787 1.24-.676 1.067.236 1.133 1.488 1.173 2.954.027.887.04 1.888.294 2.662.133.406.88.937 1.6 1.45 1.106.794 2.373 1.694 2.453 2.866.04.79-.787 1.564-1.733 2.32-.8.64-1.627 1.332-1.694 1.921-.053.53.574 1.353 1.16 2.153.787 1.044 1.587 2.132 1.347 3.118-.213.91-1.413 1.512-2.56 2.002-.88.378-1.787.784-1.973 1.255-.24.612.186 1.641.6 2.645.466 1.163.893 2.272.453 3.035-.587 1.003-2.107 1.145-3.427 1.237-.853.058-1.733.11-2.04.402-.56.561-1.026 1.432-1.466 2.26-.32.593-.627 1.153-.96 1.54-.44.529-.907.694-1.4.493-1-.423-.774-1.71-.534-3.192.147-.896.307-1.913.174-2.724-.067-.424-.734-1.06-1.374-1.67-.986-.945-2.106-2.015-2.053-3.15.04-.764.92-1.383 1.907-2.007.826-.525 1.68-1.129 1.773-1.704.08-.508-.507-1.357-1.067-2.17-.746-1.063-1.52-2.155-1.306-3.059.213-.843 1.346-1.332 2.44-1.761.84-.332 1.706-.708 1.853-1.163.2-.587-.293-1.57-.787-2.507-.56-1.09-1.093-2.112-.76-2.822l.093-.162c.507-.817 1.854-.98 3.04-1.142" />
	<path fill="#f1471f" d="M240.493 120.479c-6.346-5.422-9.6-10.763-21.133.998-10.827 11.195-30.253 26.844-49.48 37.042-18.787 10.786-37.373 16.124-36.72 20.354.053 3.696 21.093 6.012 44.573-1.026 23.6-6.234 49.627-21.828 62.334-35.334 13.866-14.189 6.466-16.918.426-22.034" />
	<path fill="#df2e23" d="M155.133 179.015s-.106-.578-.306-1.322c-.12-.368-.227-.797-.387-1.233-.147-.43-.267-.892-.427-1.34a11.57 11.57 0 0 1-.186-.67c-.053-.223-.187-.435-.214-.647a3.308 3.308 0 0 0-.146-.614c-.027-.196-.134-.394-.147-.57-.08-.702-.253-1.306-.253-1.306s-.334.398-.64 1.2c-.093.196-.093.423-.12.663-.027.243-.067.504-.053.772-.013.273.04.54.08.816.067.273.12.552.173.833.213.511.387 1.052.68 1.476.28.438.56.823.853 1.111.56.601 1.094.83 1.094.83M166.107 173.576c.346.528.693 1.003 1.04 1.355.68.746 1.266 1.068 1.266 1.069 0 0-.173-.632-.48-1.484l-.053-.153c-.16-.418-.333-.899-.533-1.394l-.04-.11c-.213-.524-.427-1.087-.653-1.63l-.307-.842c-.08-.279-.267-.543-.32-.811a6.847 6.847 0 0 0-.253-.755c-.067-.244-.187-.488-.24-.706l-.013-.095c-.2-.845-.454-1.505-.454-1.505s-.253.557-.426 1.572c-.04.325.013.694.04 1.092.013.265.027.549.067.84.013.3.106.588.186.884.093.296.174.598.267.9.293.614.547 1.254.907 1.773M178.653 169.117c.44.611.854 1.162 1.28 1.579.8.87 1.494 1.272 1.494 1.273 0 0-.28-.734-.734-1.745l-.08-.172c-.24-.49-.48-1.047-.76-1.621l-.067-.128c-.293-.611-.586-1.262-.92-1.902-.08-.182-.36-.813-.453-.994-.12-.334-.347-.639-.44-.962-.12-.304-.253-.598-.373-.88-.12-.289-.28-.564-.36-.825l-.04-.099c-.334-1.024-.694-1.773-.694-1.773s-.146.712-.16 1.916c.027.448.16.95.28 1.492.04.287.093.592.174.901.067.319.186.628.293.943.133.315.253.637.373.956.4.704.747 1.437 1.187 2.041M190.787 163.73c.533.678 1.053 1.3 1.546 1.77.974.98 1.747 1.453 1.747 1.453s-.4-.824-1.027-1.974l-.093-.195c-.32-.547-.653-1.175-1.026-1.82l-.08-.14c-.4-.684-.814-1.42-1.227-2.136-.147-.263-.48-.873-.627-1.135-.186-.382-.453-.726-.613-1.089-.16-.35-.333-.679-.507-.997-.16-.327-.36-.636-.506-.931l-.04-.105a21.819 21.819 0 0 0-.987-2.003s-.013.85.16 2.23c.107.558.333 1.183.56 1.86.093.306.187.62.307.946.106.335.266.656.426.987l.48 1.002c.507.79.96 1.602 1.507 2.276M202.453 157.441c.654.744 1.267 1.415 1.854 1.932 1.133 1.071 2.04 1.602 2.04 1.602s-.534-.907-1.347-2.178l-.133-.206c-.4-.596-.827-1.283-1.32-1.988l-.107-.152c-.507-.748-1.04-1.548-1.573-2.336-.227-.334-.6-.919-.814-1.247-.253-.423-.573-.803-.8-1.203-.226-.381-.453-.745-.666-1.092-.227-.362-.467-.698-.654-1.016l-.067-.109c-.693-1.301-1.306-2.208-1.306-2.208s.12.977.506 2.508c.227.659.56 1.396.907 2.193.147.319.28.643.44.976.16.344.36.68.56 1.018.2.344.4.696.613 1.042.627.85 1.214 1.735 1.867 2.464M213.6 150.292c.773.785 1.507 1.5 2.2 2.05 1.333 1.138 2.36 1.709 2.36 1.709s-.667-.971-1.72-2.334l-.16-.217c-.493-.637-1.04-1.37-1.653-2.124l-.12-.156c-.64-.801-1.294-1.648-1.96-2.49-.307-.398-.734-.954-1.027-1.343-.32-.454-.707-.858-1.013-1.291-.267-.41-.56-.796-.84-1.167-.28-.39-.574-.749-.827-1.09l-.067-.114c-.907-1.409-1.667-2.362-1.667-2.362s.28 1.085.894 2.74c.346.744.813 1.58 1.32 2.481.173.327.373.657.573.992.213.35.453.693.693 1.041.254.348.494.704.747 1.063.76.896 1.493 1.833 2.267 2.612M224.187 142.307c.906.812 1.773 1.556 2.56 2.126 1.546 1.184 2.72 1.776 2.72 1.776s-.827-1.018-2.107-2.45l-.2-.224c-.6-.666-1.267-1.427-2.013-2.214l-.147-.165c-.76-.833-1.573-1.716-2.387-2.599-.386-.445-.853-.966-1.24-1.408-.4-.477-.866-.9-1.226-1.354-.36-.43-.707-.835-1.04-1.224-.36-.403-.694-.783-1.014-1.135l-.093-.115c-1.146-1.496-2.04-2.482-2.04-2.482-.013.003.44 1.172 1.32 2.93.48.815 1.094 1.734 1.76 2.72.227.33.467.658.72.991.267.35.547.69.84 1.039l.88 1.07c.907.938 1.787 1.908 2.707 2.718M240.2 137.47s-1-1.045-2.533-2.518c-.76-.73-1.64-1.592-2.614-2.487-.96-.898-1.986-1.862-3-2.821-.506-.487-1.013-.97-1.506-1.45-.48-.49-1.014-.925-1.467-1.393-.893-.941-1.787-1.793-2.547-2.526-1.4-1.551-2.466-2.551-2.466-2.551s.64 1.237 1.8 3.061c.613.876 1.386 1.856 2.24 2.904.866 1.026 1.88 2.038 2.88 3.064 1.066.951 2.093 1.946 3.16 2.764 1.053.827 2.053 1.583 2.96 2.158 1.773 1.198 3.093 1.794 3.093 1.794" />
	<path fill="#fef7da" d="M168.92 173.181c-1.933-.58-4.16-1.726-6.28-3.378-2.773-2.151-4.747-4.723-5.6-6.828a8.042 8.042 0 0 1-.427-1.474 2.209 2.209 0 0 0 0-.414 2.12 2.12 0 0 1 .04-.612l.053-.127c.053-.012.2-.028.494.017 1.2.159 4.36 1.716 9.72 6.435.653.577 1.626.57 2.28.035.333-.259.866-.88 1.586-2.367 1.547 1.605 2.68 3.27 3.254 4.72.746 1.841.586 3.067.12 3.612-.187.237-.427.424-.8.581-.854.367-2.494.396-4.44-.2m-12.307-12.097v.003-.003m46.694-69.38a5.508 5.508 0 0 0-.96 1.959c-1.44-.058-3.694-2.462-5.28 3.01-1.334 4.587-12.64 34.488-12.64 34.488L157.64 154.46l-1.587 1.221c-.733.355-1.4.853-1.92 1.515-1.56 2.064-1.346 4.7-.36 7.11 1.174 2.87 3.52 5.796 6.694 8.283 2.44 1.897 5.013 3.243 7.44 3.975 2.426.72 4.76.885 6.786.089.854-.352 1.667-.917 2.254-1.684.253-.328.44-.683.6-1.037l.16-.263 16.933-35.377 29.28-28.935.187-.215c.226-.2.453-.425.666-.697 1.6-2.095 1.427-4.805.427-7.257l-.013-.022c-1.093-2.674-3.2-5.349-6.08-7.597-2.253-1.763-4.667-2.997-6.973-3.645-2.294-.642-4.534-.748-6.48.028-.894.368-1.734.956-2.347 1.753" />
	<path fill="#e8dfc3" d="M172.827 165.485a1.023 1.023 0 0 1-.933-1.428l30.693-69.385a1.032 1.032 0 0 1 1.346-.516c.507.228.734.827.507 1.34l-30.693 69.385c-.16.376-.534.604-.92.604" />
	<path fill="#ec1d27" d="M194.48 140.436l-12.427-8.224 2.747-4.144 12.413 8.227-2.733 4.141" />
	<path fill="#fbc20b" d="M243.173 139.284c-12.133 32.49-83.866 15.399-109.466-22.479-10.494 13.063-22.72 26.38-36.894 35.064-18.48 11.316-55.16-2.609-60.68 3.111-10.426 10.815 17.707 46.667 31.894 54.816 41.12 23.621 57.013-9.316 106.946-8.677 21.747.278 50.36 23.829 69.48 6.233 16.387-15.093 12.12-51.865-1.28-68.068" />
</svg>
