<svg xmlns="http://www.w3.org/2000/svg" viewBox="0 0 306 306">
	<path fill="#487d83" d="M304.763 152.267c0 84.157-68.223 152.381-152.382 152.381C68.224 304.648 0 236.424 0 152.267 0 68.108 68.224-.116 152.381-.116c84.159 0 152.382 68.224 152.382 152.383" />
	<path fill="#fff" d="M226.879 231.415c-6.58-21.255-33.356-48.7-74.498-48.7s-67.916 27.445-74.497 48.7c-3.324 10.737-3.24 35.133-2.587 53.666C97.912 298.372 124.255 306 152.381 306c28.127 0 54.47-7.628 77.086-20.919.652-18.533.737-42.929-2.588-53.666" />
	<path fill="#fff" fill-rule="evenodd" d="M121.463 87.448c5.161-9.096 3.397-21.572-3.074-33.085-6.461-11.494-15.866-18.924-26.329-19.252-5.161 9.094-4.963 22.066 1.508 33.578 6.455 11.511 17.433 18.431 27.895 18.759" />
	<path fill="#cdccca" fill-rule="evenodd" d="M119.556 84.061c-9.208-.874-18.233-7.236-23.57-16.736-5.338-9.509-6.063-20.516-2.02-28.828 9.209.874 14.466 15.183 19.8 24.684 5.345 9.52 9.837 12.567 5.79 20.88" />
	<path fill="#fff" fill-rule="evenodd" d="M180.527 87.443c-5.164-9.095-3.388-21.567 3.082-33.08 6.451-11.499 15.858-18.93 26.319-19.258 5.175 9.1 4.975 22.072-1.496 33.586-6.467 11.504-17.433 18.428-27.905 18.752" />
	<path fill="#cdccca" fill-rule="evenodd" d="M182.435 84.056c9.205-.872 18.23-7.235 23.566-16.735 5.351-9.505 6.066-20.517 2.022-28.83-9.199.88-14.466 15.185-19.8 24.685-5.346 9.52-9.824 12.572-5.788 20.88M151.001 261.423c-15.21 1.125-30.248-6.222-37.026-34.186-6.775-30.132-17.711-44.653-12.982-79.594 4.856-35.792 25.752-61.646 50.008-61.646 24.258 0 45.155 25.854 50 61.646 4.739 34.941-6.197 49.462-12.982 79.594-6.767 27.964-21.806 35.311-37.018 34.186" />
	<path fill="#2a9640" d="M212.504 261.31c-1.463-.585-1.401-4.554-2.745-5.23-1.506-.765-4.562 1.67-5.735.896-1.461-.96-.621-4.87-1.575-5.856-1.513-1.587-4.984-2.205-4.6-3.507.383-1.313 3.66.042 5.854-.333 1.37-.239 3.078-3.873 4.97-3.697 1.544.15 2.47 3.994 4.151 4.428 1.5.386 4.268-2.539 5.893-1.882 1.628.656 1.547 4.66 2.902 5.423 1.513.856 4.904-1.25 6.122-.279 1.495 1.191.163 4.971.988 6.094 1.328 1.792 4.678 3.117 4.03 4.322-.642 1.194-3.614-.788-5.836-.706-1.39.041-3.53 3.421-5.263 3.094-1.397-.261-1.896-4.122-3.512-4.621-1.447-.447-4.185 2.444-5.644 1.855" />
	<path fill="#216c33" d="M209.796 255.6l.161.067c.782.396 1.13 1.536 1.479 2.738.319 1.103.639 2.244 1.237 2.483.606.244 1.63-.355 2.635-.923 1.095-.622 2.14-1.198 2.987-.941.938.312 1.536 1.476 2.076 2.621.438.927.885 1.899 1.401 1.994.784.146 1.823-.79 2.75-1.612.857-.756 1.667-1.468 2.423-1.49.992-.036 2.107.304 3.087.615.916.285 2.167.695 2.356.34.19-.352-.863-1.15-1.637-1.727-.83-.616-1.779-1.304-2.367-2.109-.45-.616-.4-1.69-.35-2.835.055-1.244.103-2.653-.569-3.185-.457-.363-1.533-.092-2.566.163-1.28.32-2.584.657-3.5.153-.798-.45-1.13-1.61-1.494-2.839-.34-1.129-.701-2.297-1.36-2.562-.661-.268-1.744.317-2.776.896-1.133.626-2.188 1.228-3.07 1.002-1.003-.273-1.699-1.414-2.38-2.526-.551-.903-1.15-1.843-1.702-1.891-.848-.077-1.806.968-2.636 1.897-.764.856-1.482 1.668-2.233 1.796-.98.174-2.13.016-3.145-.112-.952-.121-2.246-.269-2.358.116-.113.387 1.052.951 1.895 1.375.904.45 1.93.976 2.604 1.68.521.536.603 1.61.679 2.744.085 1.228.168 2.619.83 3.057.411.268 1.423-.105 2.384-.468 1.115-.422 2.275-.846 3.159-.517zm2.53 6.132c-.929-.375-1.297-1.7-1.675-2.983-.288-.989-.598-2.01-1.091-2.26h-.007c-.713-.27-1.73.106-2.707.475-1.201.455-2.348.866-3.05.406-.988-.65-1.09-2.272-1.191-3.71-.07-.925-.143-1.885-.45-2.205-.59-.61-1.549-1.101-2.4-1.523-1.406-.706-2.633-1.293-2.302-2.43.325-1.136 1.7-.99 3.292-.787.964.121 2.056.27 2.912.119.45-.078 1.09-.808 1.719-1.508.962-1.087 2.077-2.31 3.356-2.194.918.096 1.626 1.152 2.321 2.283.567.924 1.141 1.88 1.796 2.124.657.177 1.607-.367 2.535-.888 1.21-.672 2.478-1.359 3.509-.943 1.03.415 1.455 1.784 1.844 3.106.299 1.013.595 2.056 1.104 2.342l.005.003c.736.319 1.823.032 2.885-.23 1.298-.327 2.564-.584 3.288-.014 1.012.8.951 2.452.883 3.902-.043.934-.096 1.897.175 2.265.518.703 1.417 1.359 2.204 1.943 1.302.968 2.41 1.824 1.848 2.861-.564 1.043-1.874.601-3.396.125-.924-.29-1.967-.609-2.83-.581-.454.013-1.182.645-1.882 1.263-1.086.954-2.299 2.046-3.47 1.825-.852-.163-1.377-1.252-1.928-2.407-.448-.945-.921-1.926-1.533-2.192-.62-.196-1.56.324-2.459.832-1.173.663-2.364 1.36-3.305.982" />
	<path fill="#2a9640" d="M216.472 255.303c-1.657-.038-2.844-3.73-4.399-3.887-1.728-.184-4.02 3.13-5.422 2.828-1.728-.367-2.08-4.277-3.32-4.855-1.967-.93-5.506-.272-5.528-1.609-.031-1.35 3.54-1.267 5.55-2.387 1.263-.706 1.723-4.676 3.598-5.182 1.537-.408 3.725 2.841 5.513 2.656 1.601-.164 3.292-3.847 5.095-3.803 1.82.05 3.156 3.81 4.765 4.057 1.801.28 4.385-2.848 5.94-2.356 1.919.61 1.988 4.606 3.212 5.379 1.981 1.23 5.85 1.37 5.644 2.72-.213 1.333-3.947.45-6.157 1.268-1.38.504-2.39 4.361-4.282 4.635-1.516.225-3.317-3.192-5.108-3.107-1.6.08-3.429 3.69-5.101 3.643" />
	<path fill="#216c33" d="M202.972 248.763c.19.062.373.13.545.212.672.314 1.082 1.278 1.5 2.297.458 1.108.982 2.341 1.742 2.53.521.111 1.381-.59 2.225-1.263 1.037-.831 2.127-1.683 3.157-1.574.864.088 1.608 1.023 2.342 2.022.669.909 1.373 1.854 2.03 1.866.691.02 1.532-.884 2.36-1.752.904-.952 1.766-1.845 2.7-1.889.964-.047 2.032.837 2.978 1.73.804.758 1.59 1.455 2.094 1.382.852-.128 1.594-1.344 2.248-2.419.604-.99 1.176-1.925 1.93-2.2.992-.356 2.237-.41 3.342-.446 1.03-.036 2.448-.063 2.508-.46.047-.315-1.056-.728-2.286-1.082-1.056-.3-2.28-.634-3.154-1.186-.673-.426-1.009-1.45-1.377-2.538-.4-1.18-.921-2.508-1.733-2.793-.563-.18-1.538.432-2.475 1.032-1.148.735-2.323 1.507-3.404 1.339-.893-.134-1.673-1.107-2.473-2.134-.73-.937-1.526-1.904-2.231-1.92-.735-.018-1.585.903-2.397 1.798-.887.98-1.712 1.906-2.651 2.002-.968.106-2.115-.704-3.168-1.51-.887-.682-1.777-1.294-2.279-1.158-.845.223-1.416 1.534-1.921 2.687-.46 1.063-.901 2.068-1.585 2.452-.899.507-2.059.77-3.082 1.015-.954.221-2.245.546-2.234.945.005.32 1.074.483 2.245.596.81.079 1.727.172 2.504.419zm3.372 5.87c-1.04-.362-1.585-1.737-2.088-2.946-.344-.834-.71-1.694-1.112-1.884-.777-.354-1.81-.467-2.799-.559-.709-.072-1.377-.128-1.889-.279-.697-.204-1.055-.588-1.07-1.146-.027-1.17 1.335-1.522 2.93-1.902.965-.228 2.07-.477 2.85-.92.411-.23.8-1.134 1.175-2.006.579-1.35 1.24-2.88 2.512-3.218.858-.229 1.924.468 3.01 1.298.914.701 1.898 1.409 2.572 1.346.594-.062 1.336-.897 2.057-1.704.948-1.05 1.939-2.129 3.084-2.105 1.072.028 2.053 1.163 2.901 2.257.656.846 1.35 1.724 1.926 1.811.737.113 1.766-.56 2.765-1.207 1.159-.745 2.27-1.44 3.239-1.134 1.246.392 1.849 1.984 2.314 3.361.298.887.598 1.807 1 2.065.794.495 1.882.79 2.924 1.09.751.212 1.46.42 1.983.684.712.361 1.025.833.943 1.392-.188 1.162-1.683 1.18-3.399 1.236-1.04.029-2.215.078-3.075.394-.452.163-.966.995-1.464 1.803-.769 1.248-1.64 2.667-2.912 2.85-.866.129-1.798-.674-2.772-1.59-.814-.767-1.724-1.548-2.381-1.51-.592.026-1.365.827-2.112 1.605-.972 1.013-1.961 2.065-3.025 2.036-.983-.018-1.843-1.118-2.626-2.182-.598-.809-1.252-1.661-1.8-1.706-.702-.074-1.65.662-2.554 1.384-1.051.833-2.027 1.628-2.907 1.44l-.2-.054" />
	<path fill="#2a9640" d="M217.827 252.065c-1.254-1.168-4.698.7-5.934-.182-1.39-.986-1.01-4.995-2.376-5.668-1.684-.83-4.41 2.058-5.74 1.809-2.132-.401-4.769-2.879-5.532-1.753-.744 1.118 2.3 2.956 3.216 5.021.578 1.29-1.324 4.797-.253 6.252.852 1.168 4.323-.152 5.464 1.101 1.001 1.114-.184 4.98.963 6.051 1.13 1.067 4.393-.861 5.545.045 1.284 1.012.597 4.958 1.743 5.658 1.41.872 4.284-1.763 5.51-1.37 1.968.622 3.924 3.436 4.846 2.471.944-.968-1.55-3.263-2.147-5.415-.38-1.346 2.004-4.554 1.083-6.157-.772-1.319-4.454-.393-5.531-1.705-.975-1.182.39-4.991-.857-6.158" />
	<path fill="#216c33" d="M213.116 264.187c.121.046.224.11.321.182.762.6.927 1.944 1.067 3.239.112 1.05.219 2.136.643 2.397.653.374 1.825-.2 2.884-.708.968-.472 1.893-.908 2.558-.694.866.27 1.746.957 2.5 1.552.874.69 1.712 1.272 1.928 1.046.282-.286-.38-1.378-.877-2.172-.53-.852-1.14-1.814-1.401-2.777-.206-.732.178-1.753.585-2.837.445-1.178.945-2.514.524-3.235-.241-.42-1.265-.572-2.33-.66-1.255-.11-2.569-.276-3.16-.985-.565-.696-.495-1.922-.43-3.223.06-1.192.116-2.425-.396-2.901-.481-.455-1.667-.279-2.788-.075-1.23.224-2.4.424-3.099-.073-.834-.594-1.104-1.935-1.369-3.238-.22-1.06-.457-2.156-.955-2.4-.745-.345-1.968.298-3.022.9-.975.552-1.886 1.084-2.616.944-.946-.169-1.982-.74-2.876-1.218-1.044-.559-2.046-.995-2.224-.727-.224.327.689 1.292 1.344 1.999.705.762 1.494 1.63 1.91 2.549.314.703.07 1.77-.189 2.9-.28 1.224-.603 2.612-.121 3.27.285.39 1.272.394 2.304.371 1.225-.028 2.534.031 3.137.703.59.648.57 1.875.537 3.17-.032 1.186-.068 2.414.4 2.853.451.426 1.554.19 2.614-.031.981-.21 1.922-.4 2.597-.121zm1.755 6.7l-.171-.091c-.72-.44-.843-1.668-.99-2.973-.12-1.13-.266-2.296-.786-2.706-.4-.318-1.405-.134-2.35.067-1.231.265-2.538.503-3.214-.13-.725-.683-.687-2.114-.656-3.5.023-1.063.041-2.166-.328-2.574-.423-.46-1.543-.496-2.6-.467-1.253.028-2.405-.003-2.887-.664-.72-.982-.356-2.601-.03-4.032.208-.922.422-1.882.23-2.301-.361-.803-1.102-1.619-1.765-2.33-1.092-1.183-2.067-2.19-1.415-3.169.314-.468.835-.6 1.547-.389.517.152 1.123.47 1.76.81.888.477 1.813.98 2.657 1.145.439.08 1.258-.396 2.054-.85 1.229-.701 2.676-1.473 3.792-.928.848.422 1.12 1.664 1.39 2.982.234 1.134.46 2.31 1.034 2.713.442.315 1.5.132 2.508-.048 1.313-.24 2.738-.413 3.472.268.793.743.725 2.185.648 3.581-.056 1.067-.123 2.168.237 2.614.403.486 1.552.614 2.645.714 1.3.107 2.5.306 2.926 1.04.63 1.09.03 2.644-.487 4.014-.336.882-.685 1.794-.565 2.237.229.843.806 1.75 1.308 2.556.832 1.333 1.518 2.49.705 3.33-.388.4-.897.442-1.507.133-.448-.228-.944-.626-1.47-1.044-.739-.587-1.511-1.19-2.283-1.439-.397-.127-1.221.264-2.012.648-1.159.556-2.448 1.205-3.397.783" />
	<path fill="#f1471f" d="M197.79 247.423c-2.453 8.602-2.19 15.297-19.455 11.634-16.298-3.577-42.922-6.028-66.124-3.736-23.175 1.512-42.93 7.766-44.852 3.602-2.143-3.334 15.273-17.879 40.404-25.512 24.758-8.422 57.233-9.931 76.585-5.406 20.79 4.446 15.8 11.272 13.441 19.418" />
	<path fill="#df2e23" d="M86.897 245.765s.244.58.499 1.37c.12.396.272.842.396 1.318.121.478.287.962.404 1.458l.228.708c.095.225.097.498.207.698.093.206.162.422.23.634.086.198.111.434.206.598a9.32 9.32 0 0 1 .542 1.319s-.525-.157-1.282-.69c-.194-.127-.331-.327-.5-.522-.164-.204-.348-.415-.506-.66-.178-.23-.286-.499-.405-.777-.11-.278-.227-.559-.343-.842-.108-.585-.272-1.173-.269-1.724-.012-.552.009-1.065.11-1.5.145-.869.483-1.388.483-1.388M99.91 244.119c-.004-.678.025-1.306.131-1.831.159-1.063.499-1.704.499-1.704s.216.67.447 1.612l.044.167c.102.47.237 1 .349 1.562l.025.123c.119.599.27 1.22.384 1.845l.224.932c.094.296.094.639.198.91.097.273.162.553.228.821.086.26.112.55.2.773l.038.1c.323.872.491 1.607.491 1.607-.001.001-.552-.35-1.312-1.15-.227-.269-.401-.625-.604-1-.15-.243-.31-.502-.453-.785-.154-.278-.25-.588-.351-.902-.096-.315-.199-.638-.295-.956-.102-.724-.253-1.448-.244-2.124M113.759 240.659c.024-.803.073-1.543.201-2.167.201-1.252.575-2.016.575-2.016s.186.819.38 1.99l.032.2c.086.574.196 1.218.284 1.9l.021.147c.09.724.216 1.48.304 2.246l.188 1.152c.085.374.072.776.167 1.128.08.338.14.678.194 1.004.068.325.088.665.166.953l.026.107c.306 1.113.432 1.994.432 1.994s-.55-.549-1.281-1.614c-.236-.419-.423-.944-.639-1.496-.126-.287-.261-.587-.374-.91-.132-.322-.208-.67-.294-1.018-.073-.354-.153-.718-.232-1.076-.069-.858-.193-1.722-.15-2.524M127.781 238.277c.072-.921.164-1.78.332-2.497.276-1.447.695-2.333.695-2.333s.137.97.261 2.37l.02.234c.047.673.123 1.432.167 2.232l.008.173c.05.847.127 1.743.172 2.636l.117 1.38c.06.45.028.913.098 1.339.064.404.102.802.137 1.189.052.385.056.783.105 1.128l.022.121c.242 1.342.313 2.367.313 2.367s-.525-.744-1.19-2.076c-.223-.57-.4-1.26-.6-1.999-.098-.326-.2-.664-.286-1.024-.1-.364-.15-.745-.21-1.13-.053-.394-.106-.79-.157-1.186-.018-1.001-.094-2-.004-2.924M141.923 236.975c.136-1.046.292-2.014.512-2.824.378-1.63.865-2.635.865-2.635s.07 1.12.09 2.74v.264c0 .77.02 1.64.002 2.557l-.003.198c-.012.969-.008 1.994-.024 3.02.005.424.012 1.174.019 1.593.023.528-.04 1.059 0 1.55.024.47.037.93.044 1.37.02.455.004.897.02 1.296l.009.135c.152 1.573.147 2.741.148 2.741-.001 0-.475-.941-1.04-2.533-.19-.724-.33-1.58-.484-2.503a24.148 24.148 0 0 1-.188-1.132 12.819 12.819 0 0 1-.108-1.235c-.025-.428-.05-.864-.07-1.296.054-1.128.053-2.264.207-3.306M156.112 236.748c.224-1.156.459-2.23.743-3.13.52-1.807 1.101-2.927 1.101-2.927s-.028 1.268-.148 3.101l-.019.288c-.064.867-.12 1.841-.216 2.876l-.017.216c-.09 1.088-.177 2.236-.277 3.385-.035.532-.083 1.282-.115 1.803-.023.599-.125 1.188-.136 1.753-.007.53-.036 1.046-.063 1.542-.02.512-.068 1.008-.086 1.458l-.004.148c.026 1.798-.08 3.092-.08 3.092s-.4-1.132-.824-2.974c-.135-.87-.215-1.892-.3-2.996a22.716 22.716 0 0 1-.07-2.567l.035-1.388c.15-1.256.237-2.52.476-3.68M170.292 237.604c.327-1.263.656-2.439 1.028-3.416.677-1.973 1.37-3.195 1.37-3.192 0 0-.137 1.397-.425 3.432l-.048.319c-.141.949-.288 2.025-.476 3.164l-.04.238c-.189 1.198-.382 2.464-.581 3.728-.092.635-.197 1.374-.284 2-.075.664-.23 1.312-.295 1.939-.057.59-.13 1.16-.201 1.707-.072.569-.153 1.109-.224 1.61l-.016.159c-.135 2.01-.359 3.427-.359 3.427s-.29-1.312-.552-3.402c-.057-1.008-.054-2.194-.045-3.466.013-.434.033-.868.063-1.318.028-.469.078-.941.126-1.42.051-.49.104-.985.158-1.481.254-1.376.465-2.76.801-4.028M187.452 232.432s-.27 1.521-.76 3.74c-.255 1.11-.53 2.403-.864 3.775-.325 1.372-.668 2.836-1.01 4.301-.157.73-.32 1.46-.478 2.18-.14.724-.357 1.427-.483 2.113-.25 1.376-.536 2.663-.781 3.77-.327 2.21-.69 3.737-.69 3.737s-.16-1.484-.213-3.797c.035-1.148.146-2.483.28-3.92.176-1.432.475-2.938.758-4.444.39-1.484.725-2.983 1.184-4.342.449-1.362.894-2.628 1.361-3.68.876-2.121 1.696-3.433 1.696-3.433" />
	<path fill="#fff" fill-rule="evenodd" d="M151.003 246.923c-18.732 1.166-37.252-6.44-45.596-35.396-8.346-31.202-21.812-46.239-15.988-82.422 5.98-37.06 31.713-63.83 61.584-63.83 29.87 0 55.604 26.77 61.57 63.83 5.836 36.183-7.63 51.22-15.986 82.422-8.331 28.956-26.851 36.562-45.584 35.396" />
	<path fill="#ededed" fill-rule="evenodd" d="M150.999 188.583l3.222.356-.178-.714 10.601-1.209c-7.37-37.279-2.91-62.037 5.659-91.777l-19.304-23.607-19.303 23.607c8.57 29.74 13.027 54.498 5.657 91.777l10.59 1.21-.167.713 3.223-.356" />
	<path fill="#cdccca" fill-rule="evenodd" d="M151.003 187.98c-13.195 0-26.008-17.112-38.038-.545-2.946 4.048-4.765 9.57-4.765 15.625 0 13.97 16.556 18.896 11.481 33.132-5.978 16.788 68.62 16.764 62.63 0-5.504-15.437 11.482-16.003 11.482-33.132 0-6.055-1.806-11.577-4.753-15.625-12.03-16.567-24.855.545-38.037.545" />
	<path fill="#959595" fill-rule="evenodd" d="M172.85 217.684c4.969 0 9.022-5.992 9.022-13.325 0-7.335-4.053-13.324-9.021-13.324-4.97 0-9.023 5.989-9.023 13.324 0 7.333 4.053 13.325 9.023 13.325M129.156 217.684c4.968 0 9.032-5.992 9.032-13.325 0-7.335-4.064-13.324-9.032-13.324-4.97 0-9.024 5.989-9.024 13.324 0 7.333 4.055 13.325 9.024 13.325" />
	<path fill="#8f3e1d" fill-rule="evenodd" d="M182.625 92.632c-4.117-1.353-9.128-1.62-14.47-11.599 1.664 6.395 1.848 8.878 7.226 13.746-6.496-3.488-14.809-7.775-16.902-15.638-.655 5.658 1.492 7.703 7.03 12.774-8.456-3.847-12.688-5.867-14.852-13.582-2.162 7.715-6.394 9.735-14.852 13.582 5.534-5.071 7.686-7.116 7.024-12.774-2.085 7.863-10.4 12.15-16.894 15.638 5.37-4.868 5.554-7.351 7.221-13.746-5.344 9.979-10.35 10.246-14.467 11.599 3.31-4.225 3.507-10.543 6.914-15.237 5.305-7.318 4.72-12.884 25.054-12.884 20.122 0 19.75 5.566 25.056 12.884 3.407 4.694 3.603 11.012 6.912 15.237" />
	<path fill="#cdccca" d="M168.513 128.367c0 6.81 5.524 12.332 12.335 12.332 6.81 0 12.336-5.522 12.336-12.332 0-6.815-5.525-12.335-12.336-12.335-6.81 0-12.335 5.52-12.335 12.335" />
	<path fill="#1b1819" d="M173.448 130.337a7.403 7.403 0 0 0 7.4 7.404 7.403 7.403 0 0 0 0-14.804 7.4 7.4 0 0 0-7.4 7.4" />
	<path fill="#e8e7e6" d="M178.381 132.804a2.468 2.468 0 1 0 4.936 0 2.468 2.468 0 0 0-4.936 0" />
	<path fill="#cdccca" d="M133.484 128.367c0 6.81-5.521 12.332-12.335 12.332-6.812 0-12.334-5.522-12.334-12.332 0-6.815 5.522-12.335 12.334-12.335 6.814 0 12.335 5.52 12.335 12.335" />
	<path fill="#1b1819" d="M128.55 130.337a7.403 7.403 0 0 1-7.4 7.404 7.403 7.403 0 0 1 0-14.804 7.4 7.4 0 0 1 7.4 7.4" />
	<path fill="#e8e7e6" d="M123.616 132.804a2.467 2.467 0 1 1-4.935.001 2.467 2.467 0 0 1 4.935-.001" />
</svg>
