<svg xmlns="http://www.w3.org/2000/svg" viewBox="0 0 306 306">
	<path fill="#487d83" d="M304.761 152.38c0 84.157-68.222 152.381-152.381 152.381C68.223 304.761 0 236.537 0 152.38 0 68.221 68.223 0 152.38 0c84.159 0 152.381 68.221 152.381 152.38" />
	<path fill="#ec1d27" d="M152.38 203.51c-53.864 0-97.521 24.085-97.521 53.795v12.158c25.345 21.134 57.657 34.193 92.986 35.225l4.535-47.099 4.535 47.099c35.33-1.032 67.641-14.09 92.988-35.225v-12.158c0-29.71-43.664-53.796-97.523-53.796" />
	<path fill="#f8c717" d="M147.845 304.688c1.508.045 3.018.073 4.535.073 1.517 0 3.028-.028 4.535-.073l-4.535-47.099-4.535 47.099" />
	<path fill="#ebba8e" d="M222.793 166.344c0 8.83-4.19 15.993-9.362 15.993s-9.358-7.162-9.358-15.993c0-8.836 4.186-15.999 9.358-15.999 5.172 0 9.362 7.163 9.362 15.999M82.744 166.344c0 8.83 4.193 15.993 9.364 15.993 5.172 0 9.364-7.162 9.364-15.993 0-8.836-4.192-15.999-9.364-15.999-5.17 0-9.364 7.163-9.364 15.999" />
	<path fill="#f0ccab" d="M152.38 108.997c-34.472 0-61.05 7.611-60.079 61.635.015.813.022 1.627.056 2.433 1.295 32.911 60.023 76.372 60.023 76.372s59.507-43.461 60.808-76.372c.028-.806.064-1.62.05-2.433-.98-54.024-26.386-61.635-60.858-61.635" />
	<path fill="#211c1d" d="M119.608 159.152a7.29 7.29 0 0 0 14.58 0 7.289 7.289 0 0 0-7.287-7.285 7.29 7.29 0 0 0-7.293 7.285" />
	<path fill="#fff" d="M123.616 157.693a2.552 2.552 0 1 0 5.105.002 2.552 2.552 0 0 0-5.105-.002" />
	<path fill="#211c1d" d="M171.352 159.88a7.291 7.291 0 0 0 7.292 7.29 7.291 7.291 0 0 0 7.287-7.29 7.29 7.29 0 0 0-14.579 0" />
	<path fill="#fff" d="M174.63 157.693a2.552 2.552 0 1 0 5.105.002 2.552 2.552 0 0 0-5.104-.002M167.588 143.435c-.279 2.149 4.615 4.534 10.892 5.336 6.3.792 11.621-.287 11.893-2.434.272-2.134-4.616-4.528-10.901-5.329-6.284-.8-11.613.293-11.884 2.427M134.972 143.435c.28 2.149-4.613 4.534-10.892 5.336-6.3.792-11.621-.287-11.892-2.434-.272-2.134 4.613-4.528 10.9-5.329 6.285-.8 11.615.293 11.884 2.427" />
	<path fill="#fff" d="M212.472 153.981s-21.805 35.114-60.092 35.114c-41.357 0-60.464-35.114-60.464-35.114S81.846 297.69 152.38 297.69c69.892 0 60.092-143.708 60.092-143.708" />
	<path fill="#ec1d27" d="M212.257 152.887s-8.706-23.408-59.928-23.408c-45.906 0-60.998 23.408-60.998 23.408s-2.4-27.532 0-36.279c7.906-28.876 60.998-103.065 60.998-103.065s52.174 74.29 59.928 103.065c2.366 8.756 0 36.279 0 36.279" />
	<path fill="#f8c717" d="M178.388 74.556h-22.107v-17.32h-7.801v17.32h-22.108v7.803h22.108v37.294h7.801V82.36h22.107v-7.803" />
	<path fill="#ddab7c" d="M161.352 182.923a8.973 8.973 0 0 1-17.944 0c0-4.958 4.015-8.976 8.972-8.976s8.972 4.018 8.972 8.976" />
	<path fill="#ec1d27" d="M169.188 200.204c7.764-2.345-2.257 17.385-16.916 17.385-13.657 0-24.456-20.63-16.92-17.385 8.27 3.564 21.056 3.864 33.836 0" />
	<path fill="#fbc20b" d="M81.421 229.7v-53.004c0-10.004-4.428-18.58-12.466-24.153-10.43-7.224-25.358-8.544-38.963-3.443-9.17 3.439-16.455 10.243-20.508 19.161-4.055 8.918-4.393 18.88-.953 28.054 2.822 7.524 8.406 13.501 15.724 16.828 7.317 3.326 15.492 3.604 23.017.78 6.21-2.33 11.139-6.935 13.883-12.971 2.745-6.036 2.973-12.781.645-18.99-3.99-10.642-15.895-16.054-26.539-12.062-8.901 3.339-13.428 13.296-10.089 22.199 2.817 7.506 11.217 11.328 18.73 8.513a12.31 12.31 0 0 0 6.926-6.475 12.3 12.3 0 0 0 .321-9.477 3.761 3.761 0 0 0-4.844-2.201 3.764 3.764 0 0 0-2.201 4.845 4.821 4.821 0 0 1-.125 3.72 4.838 4.838 0 0 1-2.72 2.543c-3.626 1.36-7.683-.484-9.043-4.111-1.88-5.017.67-10.63 5.688-12.512 6.757-2.535 14.317.903 16.85 7.66a17.185 17.185 0 0 1-.449 13.235 17.187 17.187 0 0 1-9.674 9.04 22.41 22.41 0 0 1-17.263-.586 22.415 22.415 0 0 1-11.792-12.621c-2.735-7.29-2.465-15.21.757-22.297 3.222-7.088 9.011-12.498 16.302-15.231 11.156-4.185 23.73-3.17 32.033 2.584 4.21 2.919 9.23 8.403 9.23 17.968v105.592a3.76 3.76 0 0 0 3.762 3.761 3.76 3.76 0 0 0 3.761-3.761V229.7" />
</svg>
